<?xml version="1.0" standalone="no"?>
<!DOCTYPE svg PUBLIC "-//W3C//DTD SVG 20010904//EN"
 "http://www.w3.org/TR/2001/REC-SVG-20010904/DTD/svg10.dtd">
<svg version="1.0" xmlns="http://www.w3.org/2000/svg"
 width="492.000000pt" height="410.000000pt" viewBox="0 0 492.000000 410.000000"
 preserveAspectRatio="xMidYMid meet">

<g transform="translate(0.000000,410.000000) scale(0.100000,-0.100000)"
fill="#000000" stroke="none">
<path d="M3607 3625 c-134 -37 -302 -149 -456 -305 l-114 -115 -391 -624 -391
-625 -180 -36 c-534 -109 -921 -272 -1115 -469 -110 -112 -157 -219 -147 -337
11 -146 114 -216 358 -245 110 -12 255 -7 336 12 71 17 199 81 274 138 95 72
180 166 303 336 129 177 209 271 249 292 66 33 160 -10 221 -101 61 -92 97
-195 175 -492 81 -310 143 -460 227 -552 l41 -46 87 12 c109 14 192 50 206 88
17 43 9 58 -36 65 -62 11 -107 33 -153 75 -78 70 -111 148 -167 389 -51 222
-80 308 -140 425 -66 126 -136 216 -227 289 -48 38 -67 60 -67 76 0 13 143
266 318 562 174 296 332 569 351 606 62 128 221 252 376 293 73 20 173 18 214
-4 80 -43 92 -142 36 -276 -15 -34 74 -15 150 33 37 22 70 41 76 41 11 0 11 4
9 90 -4 188 -80 354 -185 401 -48 22 -165 24 -238 4z m-1595 -1960 c12 -12
-16 -114 -45 -170 -64 -120 -247 -284 -405 -364 -112 -56 -192 -74 -310 -69
-155 7 -232 45 -232 116 0 27 13 49 61 108 170 205 400 323 724 369 96 13 198
18 207 10z"/>
</g>
</svg>
