<?xml version="1.0" standalone="no"?>
<!DOCTYPE svg PUBLIC "-//W3C//DTD SVG 20010904//EN"
 "http://www.w3.org/TR/2001/REC-SVG-20010904/DTD/svg10.dtd">
<svg version="1.0" xmlns="http://www.w3.org/2000/svg"
 width="502.000000pt" height="332.000000pt" viewBox="0 0 502.000000 332.000000"
 preserveAspectRatio="xMidYMid meet">

<g transform="translate(0.000000,332.000000) scale(0.100000,-0.100000)"
fill="#000000" stroke="none">
<path d="M3813 2911 c-62 -61 -104 -134 -182 -314 -65 -152 -106 -227 -124
-227 -21 0 -141 -60 -165 -83 -28 -26 -56 -76 -47 -85 3 -3 35 -5 71 -4 l64 3
-12 -28 c-7 -16 -38 -77 -68 -138 -44 -89 -55 -121 -58 -171 -8 -118 42 -186
135 -186 125 0 303 96 303 163 0 31 -39 23 -141 -26 -51 -25 -103 -45 -115
-45 -31 0 -54 26 -54 61 0 61 32 186 65 254 63 131 168 212 355 276 52 18 99
36 105 41 6 5 1 17 -13 30 l-21 22 -111 -19 c-61 -10 -112 -16 -115 -13 -2 2
41 111 97 241 88 207 100 242 92 269 l-9 30 -52 -51z"/>
<path d="M1623 2860 c-112 -56 -169 -120 -319 -358 -76 -119 -156 -247 -180
-283 l-42 -66 -88 -17 c-119 -24 -264 -71 -348 -113 -89 -45 -170 -125 -186
-184 -28 -104 31 -159 177 -167 163 -9 248 39 379 214 47 64 97 120 110 126
55 26 115 -61 159 -231 31 -120 75 -234 101 -262 36 -39 163 -13 164 34 0 4
-19 16 -42 26 -71 31 -89 62 -128 226 -27 112 -79 212 -136 265 -24 22 -44 44
-44 48 0 16 299 519 331 555 100 117 278 110 239 -9 -7 -20 -9 -38 -6 -41 3
-4 29 4 57 18 l51 24 -5 62 c-15 156 -103 204 -244 133z m-648 -867 c-9 -37
-67 -115 -110 -147 -47 -36 -131 -74 -180 -81 -47 -7 -113 12 -129 37 -9 15
-2 27 43 72 87 88 213 144 330 145 53 1 53 1 46 -26z"/>
<path d="M2373 2438 c-11 -13 -49 -68 -84 -123 -83 -131 -132 -199 -188 -260
-101 -111 -231 -190 -333 -201 l-58 -7 0 31 c0 43 13 70 102 206 79 120 94
166 66 194 -19 19 -66 14 -89 -9 -84 -84 -225 -423 -204 -489 10 -30 62 -52
135 -57 120 -9 239 56 398 215 l94 93 -7 -43 c-17 -97 -98 -231 -196 -323 -30
-28 -99 -86 -154 -130 -143 -112 -272 -231 -317 -293 -81 -109 -215 -361 -261
-487 -36 -101 -41 -146 -23 -188 25 -61 85 -61 211 -3 60 28 89 52 195 162
187 192 293 355 405 624 95 226 139 312 182 351 35 33 219 168 239 176 11 4
14 -4 14 -31 0 -101 90 -168 226 -168 120 1 221 40 306 120 87 81 118 152 119
268 1 75 -12 114 -50 148 -12 11 -21 25 -21 32 0 8 35 31 78 51 59 29 79 45
86 66 17 46 -1 52 -95 28 -162 -40 -279 -116 -279 -181 0 -33 10 -41 73 -65
75 -28 97 -50 97 -95 0 -57 -31 -120 -84 -168 -63 -58 -125 -84 -217 -89 -69
-5 -78 -3 -103 19 -19 16 -32 41 -40 78 -12 53 -14 55 -46 55 -25 0 -35 5 -41
23 -5 12 -12 22 -16 22 -16 0 -69 -38 -131 -94 -34 -31 -66 -56 -71 -56 -16 0
11 105 71 274 106 301 103 292 90 320 -15 33 -51 34 -79 4z m-370 -971 c-44
-151 -105 -273 -224 -454 -98 -147 -255 -320 -319 -352 -229 -116 -112 175
231 574 121 141 299 302 320 289 4 -2 1 -28 -8 -57z"/>
</g>
</svg>
